<svg width="107" height="32" viewBox="0 0 107 32" fill="none" xmlns="http://www.w3.org/2000/svg">
<g clip-path="url(#clip0_2164_711)">
<path fill-rule="evenodd" clip-rule="evenodd" d="M27.4257 18.201C27.4258 17.3641 27.426 16.5272 27.426 15.6904C27.426 14.5721 27.4257 13.4535 27.4254 12.335C27.4248 10.0978 27.4243 7.86075 27.426 5.62594C27.4286 5.2627 27.2066 5.00843 26.822 5.00584C25.5572 4.99805 24.2924 4.99805 23.0275 5.00584C22.6403 5.00843 22.4209 5.25751 22.4209 5.5974V25.7703C22.4209 26.0739 22.6687 26.3333 22.9733 26.3307C24.2588 26.323 25.5468 26.3203 26.8323 26.3333C27.155 26.3359 27.4286 26.0765 27.4286 25.7314C27.4247 23.2213 27.4252 20.7112 27.4257 18.201ZM21.2026 21.3777C21.2026 21.746 21.2024 22.1145 21.2023 22.4832V22.4842C21.2018 23.5899 21.2013 24.6964 21.2052 25.8015C21.2052 26.0869 20.9651 26.3281 20.6837 26.3281H20.6811C19.3707 26.3281 18.0577 26.3281 16.7473 26.3307C16.484 26.3307 16.2181 26.0765 16.2181 25.7911C16.2259 23.0071 16.2285 20.2231 16.2181 17.4365C16.2156 16.7775 16.1149 16.1236 15.929 15.4854C15.7819 14.9794 15.6038 14.4813 15.3379 14.0272C15.0978 13.6147 14.8346 13.2125 14.5429 12.8337C14.3003 12.5198 14.0189 12.2318 13.7272 11.9593C13.34 11.5961 12.9089 11.2899 12.4443 11.0279C11.9565 10.7528 11.4531 10.5141 10.9111 10.3688C10.5264 10.2651 10.1341 10.1665 9.73917 10.1172C9.26934 10.0601 8.79441 10.0367 8.32203 10.0367C5.73559 10.029 3.15176 10.029 0.565318 10.0393C0.278793 10.0393 -0.00256388 9.76172 1.76291e-05 9.46593C0.00940247 8.52244 0.00786973 7.57895 0.00633248 6.63545C0.00575882 6.28165 0.0051806 5.92785 0.0051806 5.57405C0.0051806 5.26789 0.175546 5.0707 0.477551 5.02919C0.578221 5.01622 0.681472 5.00324 0.782142 5.00324C3.40211 5.00065 6.02211 4.99806 8.64212 5.00584C9.1093 5.00843 9.58168 5.03438 10.0463 5.08627C10.9033 5.18227 11.7422 5.3587 12.563 5.63113C13.2652 5.86465 13.9466 6.15005 14.5971 6.50292C15.2863 6.87653 15.9342 7.31242 16.546 7.8054C17.0286 8.19459 17.4778 8.6175 17.896 9.07156C18.4948 9.7228 19.0188 10.4337 19.4679 11.1965C19.9661 12.0449 20.3714 12.9349 20.6476 13.8767C20.8102 14.432 20.929 15.0002 21.0374 15.571C21.1097 15.9498 21.1458 16.339 21.1664 16.7256C21.1899 17.1642 21.192 17.6029 21.1941 18.0415L21.1948 18.1734C21.2034 19.064 21.2031 19.9528 21.2027 20.8427V20.8434C21.2027 21.0215 21.2026 21.1995 21.2026 21.3777ZM15.0075 22.6179C15.0075 22.9753 15.007 23.313 15.0066 23.6366C15.0056 24.4008 15.0047 25.0877 15.0101 25.7729C15.0127 26.0609 14.7416 26.3333 14.45 26.3307C13.1671 26.323 11.8867 26.3178 10.6039 26.3333C10.2477 26.3359 9.99727 26.0661 9.99987 25.7132C10.0037 24.9932 10.0032 24.2733 10.0027 23.5533C10.0026 23.3133 10.0024 23.0733 10.0024 22.8332C10.0024 22.568 10.0029 22.3026 10.0033 22.0371V22.0365C10.0044 21.3723 10.0054 20.7075 9.99987 20.0441C9.99467 19.4032 9.75463 18.8557 9.32097 18.3887C8.92864 17.9632 8.44595 17.7037 7.88322 17.6155C7.22242 17.5143 6.61837 17.6726 6.07114 18.067C5.7459 18.3005 5.4981 18.6015 5.31229 18.9492C5.13674 19.2761 5.02057 19.6289 5.01801 20.0051C5.01671 20.9496 5.01672 21.8941 5.01672 22.8389C5.01672 23.7836 5.01671 24.7286 5.01541 25.6743C5.01541 26.0272 4.87088 26.2347 4.60242 26.3152C4.5637 26.3281 4.51722 26.3281 4.47594 26.3281H0.552406C0.250397 26.3281 0.0103391 26.0895 0.0103391 25.7859C0.0103391 25.2689 0.00960421 24.7522 0.0088692 24.2356C0.0068524 22.8151 0.00483102 21.3952 0.0180836 19.974C0.0201542 19.6426 0.0822045 19.3112 0.143999 18.9811C0.159125 18.9003 0.174233 18.8196 0.188445 18.739C0.309767 18.054 0.562732 17.4105 0.882807 16.7982C1.12803 16.3286 1.40681 15.8772 1.76044 15.4776L1.8234 15.4065C2.05551 15.1442 2.28928 14.8801 2.54255 14.6422C2.96074 14.2504 3.42022 13.9027 3.93127 13.6458C4.34427 13.4383 4.76502 13.2385 5.20127 13.0802C5.67365 12.9089 6.16409 12.7922 6.66744 12.761C6.75887 12.7559 6.8503 12.7499 6.94168 12.7439C7.26061 12.7231 7.57913 12.7023 7.89612 12.7144C8.47432 12.7377 9.04996 12.8207 9.60234 13.0075C10.0231 13.1503 10.4464 13.3033 10.8491 13.4927C11.3473 13.7263 11.8119 14.0272 12.2249 14.3956L12.2531 14.4206C12.5511 14.6849 12.8528 14.9524 13.118 15.2467C13.5052 15.6748 13.833 16.147 14.1067 16.6607C14.3364 17.094 14.5223 17.5403 14.6694 18.0047C14.8088 18.4458 14.9043 18.8973 14.9507 19.3591C15.0265 20.0834 15.0157 20.8087 15.0057 21.4794C14.9997 21.8827 14.994 22.2662 15.0075 22.6179Z" fill="white"/>
<path fill-rule="evenodd" clip-rule="evenodd" d="M106.403 6.93541C106.55 6.97913 106.698 7.02356 106.85 7.06619C106.859 6.95119 106.862 6.8351 106.865 6.71913C106.873 6.44335 106.881 6.16866 106.954 5.9148C107.065 5.5263 106.871 5.46392 106.608 5.38071C105.512 5.02702 104.395 4.8813 103.258 5.11023C101.794 5.40841 100.768 6.25464 100.227 7.64183C99.8313 8.6545 99.8035 9.69486 100.005 10.763C100.358 12.6703 101.829 14.0229 103.736 14.1686C104.853 14.2586 105.935 14.0784 106.982 13.6483C107.232 13.5513 107.287 13.4332 107.287 13.1975C107.28 12.0677 107.28 10.9309 107.28 9.80107V9.7989C107.28 9.72846 107.274 9.66126 107.268 9.59502C107.265 9.56347 107.262 9.53204 107.26 9.50061H104.52V10.2081V10.9295H105.63C105.63 11.0668 105.631 11.2005 105.632 11.3321V11.3335V11.3349V11.3363V11.3377C105.635 11.6623 105.638 11.9722 105.623 12.282C105.623 12.3652 105.498 12.5108 105.415 12.5178C104.992 12.5594 104.569 12.5871 104.145 12.5941C103.181 12.608 102.273 11.9213 101.933 11.0057C101.655 10.2705 101.593 9.52144 101.739 8.75854C101.87 8.09957 102.141 7.51695 102.689 7.08691C103.5 6.44889 104.423 6.48357 105.359 6.66385C105.708 6.72768 106.049 6.82968 106.403 6.93541ZM86.6953 14.0446C86.2696 14.0459 85.8731 14.0471 85.4809 14.0368C85.3977 14.0368 85.2798 13.9466 85.2312 13.8634C84.718 12.9271 84.2116 11.9838 83.7192 11.0405C83.6221 10.8532 83.5111 10.77 83.2961 10.7769C82.9963 10.7872 82.6964 10.786 82.3793 10.7847C82.2709 10.7842 82.1606 10.7839 82.0477 10.7839V14.0229H80.4107V5.20043C80.4465 5.19802 80.4813 5.19489 80.516 5.19164C80.5822 5.18562 80.6476 5.1796 80.716 5.1796C81.0231 5.1796 81.3303 5.17623 81.6374 5.17285C82.4053 5.1643 83.1732 5.15587 83.9411 5.20043C84.4682 5.22813 85.0093 5.40154 85.5017 5.60964C86.112 5.86627 86.438 6.42805 86.5282 7.05234C86.5976 7.53778 86.5491 8.04418 86.4866 8.5366C86.3895 9.25097 85.9526 9.77121 85.37 10.1666C85.3213 10.2013 85.2798 10.2359 85.2381 10.2775C85.2227 10.2892 85.2115 10.3051 85.1999 10.3217C85.1908 10.3349 85.181 10.3485 85.1687 10.3607L85.6554 11.2652C86.1424 12.17 86.6361 13.0874 87.1455 14.0437C86.9913 14.0437 86.8415 14.0442 86.6953 14.0446ZM82.0545 9.20243H82.3597C82.4867 9.20243 82.6144 9.20665 82.7422 9.21074C83.019 9.21978 83.296 9.22869 83.5666 9.19557C84.2601 9.11224 84.711 8.90426 84.8774 8.14124C85.0023 7.5656 84.7734 6.78187 84.066 6.67083C83.6025 6.59762 83.1321 6.57257 82.6573 6.54716C82.4571 6.53644 82.2561 6.52572 82.0545 6.51127V9.20243ZM97.1055 5.20729V10.6035C97.0911 10.6083 97.0765 10.6165 97.0644 10.6233L97.0559 10.628L97.05 10.6312C96.991 10.5445 96.9303 10.4578 96.8696 10.3711C96.8089 10.2843 96.7482 10.1976 96.6893 10.1111C96.3025 9.52036 95.9167 8.92955 95.5311 8.33922L95.5297 8.33729L95.5284 8.33512L95.5267 8.33272C94.8905 7.35871 94.255 6.38579 93.6168 5.41539C93.5612 5.32519 93.4502 5.20043 93.3601 5.19345C92.9701 5.17261 92.5841 5.17526 92.1961 5.17779C92.0665 5.17876 91.9367 5.1796 91.8064 5.1796V14.016H93.4433V8.10656C93.4874 8.17062 93.5175 8.21157 93.5405 8.24276C93.557 8.26516 93.5704 8.28334 93.5821 8.3008C93.9257 8.8143 94.2694 9.32852 94.6132 9.84286L94.6244 9.85948L94.6339 9.87369L94.6422 9.88622L94.6445 9.88946L94.651 9.89922L94.6539 9.90355C95.5317 11.2168 96.4104 12.5314 97.2928 13.8426C97.3483 13.9258 97.4453 14.0298 97.5286 14.0367C97.8108 14.0516 98.0965 14.0487 98.3833 14.046C98.4982 14.0448 98.6135 14.0437 98.7285 14.0437V5.20729H97.1055ZM48.4778 5.20043C49.2962 8.16207 50.1077 11.089 50.9262 14.0298C51.4879 14.0298 52.0082 14.0298 52.5145 14.0229C52.8592 12.9546 53.202 11.8861 53.5493 10.8031L53.5505 10.7994C53.8387 9.9009 54.1302 8.99217 54.4288 8.06489C55.053 10.0417 55.6425 11.9144 56.2251 13.7871C56.2877 13.9743 56.3639 14.0437 56.5581 14.0368L56.6385 14.0326C56.8901 14.0195 57.1459 14.0061 57.3904 14.0437C57.7719 14.0992 57.876 13.8911 57.9592 13.5859C58.1683 12.7953 58.3887 12.0122 58.6092 11.2284C58.6886 10.9464 58.7681 10.664 58.8469 10.3815C59.2908 8.79322 59.7347 7.20493 60.1718 5.60964C60.1983 5.5257 60.2107 5.43623 60.2233 5.3447C60.2305 5.29256 60.238 5.23933 60.248 5.18658H58.6944C58.1326 7.22564 57.5777 9.2441 57.0229 11.2693C56.9223 11.1554 56.8865 11.0478 56.8529 10.9468L56.8494 10.9364C56.7374 10.5954 56.6253 10.2542 56.5131 9.91319C56.0275 8.43713 55.5414 6.95926 55.0739 5.47789C54.9837 5.19345 54.7964 5.21428 54.63 5.25595C54.5324 5.28148 54.421 5.26113 54.3091 5.24077C54.0865 5.20031 53.8621 5.15937 53.7421 5.47789C53.6606 5.70201 53.5903 5.93371 53.5203 6.16456C53.495 6.24802 53.4697 6.33135 53.4439 6.41421C53.3539 6.70925 53.2648 7.00441 53.1757 7.29946L53.1749 7.30211C52.9962 7.89376 52.8173 8.4859 52.6324 9.07755C52.4924 9.53132 52.3448 9.98508 52.1909 10.4579C52.093 10.7583 51.9927 11.0665 51.8903 11.3872C51.5772 10.2468 51.268 9.12837 50.963 8.02443L50.9625 8.0225L50.961 8.01672C50.699 7.06884 50.44 6.13169 50.184 5.20043H48.4778ZM38.8438 10.6798V5.20043H40.4738V14.0367C40.3707 14.0367 40.2672 14.0372 40.1636 14.0377H40.1622C39.8476 14.0389 39.529 14.0402 39.2113 14.0298C39.152 14.0298 39.0863 13.9358 39.0383 13.8669L39.0311 13.8564L35.3065 8.27997C35.2921 8.25601 35.271 8.23192 35.2319 8.18724C35.2144 8.16737 35.1934 8.14341 35.1677 8.11354V14.0229H33.5239V5.1796C33.6507 5.1796 33.7771 5.17912 33.9032 5.17876C34.2808 5.17743 34.6564 5.17611 35.036 5.18658C35.1261 5.18658 35.2302 5.29749 35.2857 5.38071C35.9904 6.43998 36.6899 7.5019 37.389 8.56321C37.8251 9.22531 38.2611 9.88718 38.6981 10.548C38.7099 10.5675 38.7259 10.5805 38.7538 10.6029C38.7755 10.6202 38.8043 10.6433 38.8438 10.6798ZM42.0412 17.3382V22.9008C41.9233 22.7413 41.8678 22.665 41.8123 22.5748C41.3276 21.8492 40.8454 21.1235 40.3636 20.3985C39.7217 19.4325 39.0803 18.4674 38.4346 17.5047C38.386 17.4284 38.2958 17.3243 38.2265 17.3243C37.8521 17.314 37.4737 17.3153 37.0945 17.3165C36.9679 17.317 36.8411 17.3175 36.7144 17.3175V26.1607H38.3583V20.2583C38.4623 20.4247 38.5178 20.5079 38.5733 20.5911C38.9731 21.1876 39.3722 21.784 39.7714 22.3803C40.5699 23.5734 41.3684 24.7664 42.173 25.9596C42.2355 26.0497 42.3464 26.1607 42.4435 26.1676C42.7304 26.1825 43.0174 26.1796 43.3069 26.1769H43.3082H43.3097C43.4252 26.1758 43.5409 26.1746 43.6574 26.1746V17.3382H42.0412ZM42.0621 5.19345H47.6177V6.74707H43.7128V8.63366H47.6177V10.222H43.7059V12.4553H47.7564V14.0159H42.0689C42.0621 11.0959 42.0621 8.15509 42.0621 5.19345ZM92.07 24.6001H88.0263V22.3529H91.9313V20.7784H88.0263V18.8918H91.9381V17.3452H86.3757V26.1676H92.07V24.6001ZM75.951 17.3382H77.5878L77.5903 17.375C77.5963 17.4638 77.6016 17.5433 77.6016 17.6225C77.6016 18.1636 77.6054 18.7045 77.6091 19.2456C77.6179 20.5079 77.6267 21.7702 77.5878 23.0325C77.5531 24.1423 77.1301 25.1272 76.1659 25.7792C75.6318 26.1468 75.0145 26.3133 74.3625 26.3272C73.6762 26.341 72.9958 26.3547 72.3304 26.0912C71.5049 25.7654 70.9432 25.1827 70.6172 24.3782C70.3467 23.7192 70.2565 23.0187 70.2565 22.3043C70.2612 21.2107 70.2596 20.1201 70.2581 19.0205C70.2573 18.4672 70.2565 17.9115 70.2565 17.352H71.9073V17.6989C71.9073 18.1184 71.9046 18.5385 71.9019 18.9588C71.895 20.0529 71.888 21.1496 71.9281 22.2418C71.9488 22.8037 72.1084 23.3863 72.3165 23.9135C72.5593 24.5308 73.454 24.933 74.1199 24.8081C74.1714 24.7982 74.2233 24.789 74.2752 24.7797C74.6205 24.718 74.9661 24.6564 75.2435 24.385C75.7637 23.8788 75.9231 23.2268 75.937 22.554C75.9623 21.384 75.9582 20.2177 75.954 19.0497V19.0464C75.9524 18.6092 75.951 18.1717 75.951 17.7335V17.3382ZM78.5034 5.19345H76.922C76.922 5.55798 76.9244 5.92022 76.9267 6.28029V6.28162C76.9312 6.99671 76.9358 7.70385 76.922 8.40473C76.9011 9.24398 76.8804 10.0832 76.7764 10.9086C76.6862 11.6022 76.4225 12.2611 75.6665 12.4899C75.3267 12.594 74.9453 12.601 74.5846 12.594C73.9812 12.5871 73.5164 12.3097 73.2321 11.7686C72.9338 11.1999 72.8298 10.5826 72.8229 9.95835C72.808 8.90859 72.8108 7.86233 72.8136 6.8145V6.80945C72.8148 6.39133 72.8159 5.97297 72.8159 5.55412V5.20729H71.1651C71.1651 5.63312 71.1647 6.05762 71.1643 6.48104C71.1629 7.74732 71.1617 9.00397 71.1721 10.2566C71.1721 10.6797 71.2206 11.1028 71.3108 11.512C71.4981 12.3305 71.8518 13.0587 72.5663 13.5581C73.5303 14.2309 74.6053 14.2656 75.7152 14.1129C77.5323 13.8633 78.434 12.4622 78.4895 10.8393C78.5283 9.61068 78.5195 8.3786 78.5109 7.14797C78.5071 6.62098 78.5034 6.09412 78.5034 5.56797V5.19345ZM50.3269 19.2243C49.9235 19.0749 49.5203 18.9256 49.1089 18.8017C48.4708 18.6145 47.8327 18.6213 47.25 19.0237C46.7438 19.3774 46.7507 20.0155 47.25 20.3762C47.7058 20.7043 48.2256 20.8515 48.7485 20.9995C48.8224 21.0205 48.8964 21.0414 48.9702 21.0628C49.7401 21.2848 50.4823 21.5483 51.0579 22.1517C51.7793 22.9008 51.8208 24.1146 51.37 24.9816C50.933 25.8139 50.1631 26.1191 49.3032 26.2439C48.0824 26.4173 46.8686 26.348 45.6895 25.9388C45.3982 25.8347 45.2457 25.7168 45.2872 25.3839C45.338 25.0231 45.3776 24.6584 45.4198 24.271C45.4352 24.1301 45.4509 23.9851 45.4676 23.8372C45.507 23.8603 45.5434 23.8805 45.5774 23.8994C45.6451 23.9367 45.7035 23.9691 45.7589 24.0106C46.7646 24.7319 47.8743 24.9608 49.0812 24.6765C49.4558 24.5863 49.7817 24.399 49.858 23.9967C49.9412 23.5389 49.6984 23.2199 49.3309 22.9702C48.8463 22.6377 48.3 22.4613 47.7541 22.2852C47.503 22.2041 47.2521 22.1231 47.0074 22.0269C46.2028 21.7079 45.4676 21.3056 45.2178 20.39C44.9474 19.4052 45.3427 18.3925 46.0918 17.8237C47.0212 17.1232 48.1032 17.0747 49.1921 17.2481C49.4742 17.2915 49.7506 17.3725 50.0281 17.454C50.2831 17.5288 50.539 17.6038 50.8013 17.6503C51.2171 17.7254 51.1907 17.9946 51.1634 18.2739L51.162 18.2885C51.1426 18.5699 51.1027 18.8513 51.0639 19.1257C51.0473 19.2434 51.0308 19.3599 51.0162 19.4745C50.7854 19.3942 50.5558 19.3091 50.3269 19.2243ZM63.5495 6.75405H66.0465V14.0159H67.6903V6.75405H70.0832V5.20031H63.5495V6.75405ZM58.7846 18.8988H56.3917V26.1606H54.734V18.9126H52.251V17.3382H58.7776C58.7846 17.8513 58.7846 18.3511 58.7846 18.8988ZM65.1448 26.1676H66.7886V18.8779H69.1814V17.3382H62.6548V18.9126H65.1448V26.1676ZM85.2173 17.3452V18.8849H82.8106V26.1676H81.1667V18.9196H78.6837V17.352C80.8474 17.3452 83.012 17.3452 85.2173 17.3452ZM89.8436 5.19345H88.2483V14.0229H89.8436V5.19345ZM33.5309 17.3313H35.1331V26.1537H33.5309V17.3313ZM61.5588 17.3313H59.9567V26.1537H61.5588V17.3313Z" fill="white"/>
</g>
<defs>
<clipPath id="clip0_2164_711">
<rect width="107" height="32" fill="white"/>
</clipPath>
</defs>
</svg>
