<svg width="202" height="66" viewBox="0 0 202 66" fill="none" xmlns="http://www.w3.org/2000/svg">
<mask id="mask0_2095_622" style="mask-type:luminance" maskUnits="userSpaceOnUse" x="0" y="0" width="202" height="66">
<path d="M201.083 0H0V66H201.083V0Z" fill="white"/>
</mask>
<g mask="url(#mask0_2095_622)">
<path d="M26.0813 51.4224C11.9129 51.4224 0 39.8839 0 25.7068C0 11.5297 11.9129 0 26.0813 0C33.9187 0 39.5007 3.074 43.6981 7.08849L38.7431 12.0436C35.73 9.22208 31.6546 7.02758 26.0726 7.02758C15.7271 7.02758 7.63714 15.3701 7.63714 25.7155C7.63714 36.061 15.7271 44.4035 26.0726 44.4035C32.7867 44.4035 36.6096 41.7039 39.0566 39.2656C41.0595 37.2627 42.3832 34.3455 42.8795 30.4005H26.0726V23.434H49.7243C49.9768 24.688 50.0987 26.1597 50.0987 27.7968C50.0987 33.0653 48.6531 39.5878 44.0116 44.2293C39.5007 48.9144 33.7359 51.4224 26.0813 51.4224Z" fill="white"/>
<path d="M85.7679 34.868C85.7679 44.3948 78.3572 51.4224 69.2658 51.4224C60.1744 51.4224 52.7637 44.3948 52.7637 34.868C52.7637 25.2715 60.1744 18.3136 69.2658 18.3136C78.3572 18.3136 85.7679 25.2715 85.7679 34.868ZM78.5402 34.868C78.5402 28.9115 74.247 24.8361 69.2571 24.8361C64.276 24.8361 59.9828 28.9115 59.9828 34.868C59.9828 40.7635 64.276 44.8999 69.2571 44.8999C74.247 44.8999 78.5402 40.7548 78.5402 34.868Z" fill="white"/>
<path d="M121.472 34.868C121.472 44.3948 114.061 51.4224 104.97 51.4224C95.8777 51.4224 88.4668 44.3948 88.4668 34.868C88.4668 25.2715 95.8777 18.3136 104.97 18.3136C114.061 18.3136 121.472 25.2715 121.472 34.868ZM114.244 34.868C114.244 28.9115 109.951 24.8361 104.96 24.8361C99.9791 24.8361 95.6863 28.9115 95.6863 34.868C95.6863 40.7635 99.9791 44.8999 104.96 44.8999C109.951 44.8999 114.244 40.7548 114.244 34.868Z" fill="white"/>
<path d="M155.478 19.315V48.7577C155.478 60.9841 148.267 66.0001 139.742 66.0001C131.712 66.0001 126.889 60.6096 125.068 56.2207L131.399 53.5908C132.532 56.2904 135.283 59.4863 139.742 59.4863C145.193 59.4863 148.581 56.0988 148.581 49.7679V47.6604H148.328C146.7 49.6633 143.565 51.4224 139.611 51.4224C131.338 51.4224 124.128 44.212 124.128 34.9289C124.128 25.585 131.338 18.3136 139.611 18.3136C143.565 18.3136 146.7 20.0726 148.328 22.0146H148.581V19.315H155.478ZM149.077 34.9289C149.077 29.0944 145.228 24.8361 140.317 24.8361C135.344 24.8361 131.391 29.1031 131.391 34.9289C131.391 40.6938 135.344 44.8999 140.317 44.8999C145.228 44.8999 149.077 40.6938 149.077 34.9289Z" fill="white"/>
<path d="M167.469 1.759V50.4208H160.198V1.759H167.469Z" fill="white"/>
<path d="M195.126 40.3193L200.769 44.0813C198.949 46.7809 194.56 51.4136 186.975 51.4136C177.571 51.4136 170.543 44.1422 170.543 34.8592C170.543 25.0101 177.631 18.3048 186.157 18.3048C194.743 18.3048 198.949 25.1408 200.325 28.8418L201.075 30.7228L178.947 39.8839C180.636 43.2105 183.274 44.8999 186.975 44.8999C190.677 44.8999 193.245 43.0798 195.126 40.3193ZM177.753 34.3629L192.549 28.2148C191.73 26.1422 189.283 24.7054 186.401 24.7054C182.709 24.7054 177.562 27.971 177.753 34.3629Z" fill="white"/>
</g>
</svg>
