<svg width="220" height="44" viewBox="0 0 220 44" fill="none" xmlns="http://www.w3.org/2000/svg">
<g clip-path="url(#clip0_2016_608)">
<path fill-rule="evenodd" clip-rule="evenodd" d="M56.1643 27.034C56.1646 25.3202 56.165 23.6063 56.165 21.8925C56.165 19.6023 56.1643 17.3118 56.1638 15.0211C56.1626 10.4397 56.1614 5.85844 56.165 1.28185C56.1702 0.53798 55.7156 0.0172685 54.928 0.0119551C52.3378 -0.00398503 49.7476 -0.00398503 47.1574 0.0119551C46.3645 0.0172685 45.9152 0.527352 45.9152 1.22341V42.5349C45.9152 43.1566 46.4227 43.6879 47.0464 43.6826C49.6789 43.6667 52.3167 43.6613 54.9492 43.6879C55.6099 43.6933 56.1702 43.162 56.1702 42.4552C56.1623 37.3149 56.1633 32.1744 56.1643 27.034ZM43.4202 33.5394C43.4202 34.2937 43.4198 35.0484 43.4195 35.8033V35.8054C43.4185 38.0698 43.4175 40.3357 43.4255 42.5987C43.4255 43.1832 42.9338 43.6773 42.3576 43.6773H42.3523C39.6688 43.6773 36.9799 43.6773 34.2963 43.6826C33.7572 43.6826 33.2126 43.162 33.2126 42.5774C33.2285 36.8762 33.2338 31.1749 33.2126 25.4684C33.2074 24.1188 33.0013 22.7798 32.6206 21.4727C32.3193 20.4366 31.9546 19.4165 31.4101 18.4866C30.9185 17.6418 30.3793 16.8182 29.7819 16.0424C29.2851 15.3995 28.7089 14.8097 28.1116 14.2519C27.3186 13.5079 26.4359 12.881 25.4844 12.3443C24.4853 11.7811 23.4546 11.2922 22.3445 10.9947C21.5568 10.7822 20.7533 10.5803 19.9446 10.4793C18.9824 10.3624 18.0098 10.3146 17.0424 10.3146C11.7458 10.2987 6.4544 10.2987 1.1577 10.3199C0.570933 10.3199 -0.00525049 9.7514 3.61022e-05 9.14566C0.0192551 7.21351 0.0161162 5.28135 0.0129681 3.3492C0.0117933 2.62466 0.0106092 1.90012 0.0106092 1.17559C0.0106092 0.548609 0.359497 0.144792 0.977964 0.0597773C1.18412 0.0332104 1.39557 0.0066435 1.60173 0.0066435C6.96709 0.00133012 12.3325 -0.00398294 17.698 0.0119572C18.6547 0.0172706 19.622 0.0704031 20.5735 0.17667C22.3286 0.373266 24.0465 0.734575 25.7275 1.29248C27.1654 1.77069 28.5609 2.35516 29.893 3.07778C31.3044 3.8429 32.6312 4.73555 33.884 5.7451C34.8725 6.54211 35.7923 7.40818 36.6486 8.33803C37.875 9.6717 38.9481 11.1276 39.8679 12.6897C40.8881 14.4271 41.718 16.2496 42.2836 18.1784C42.6167 19.3154 42.8598 20.4791 43.0819 21.648C43.2299 22.4238 43.3039 23.2208 43.3462 24.0125C43.3942 24.9108 43.3986 25.8091 43.4029 26.7074L43.4043 26.9774C43.4219 28.8012 43.4212 30.6213 43.4204 32.4439V32.4453C43.4203 32.8099 43.4202 33.1746 43.4202 33.5394ZM30.7334 36.0792C30.7334 36.8111 30.7325 37.5026 30.7316 38.1655C30.7295 39.7305 30.7277 41.137 30.7388 42.5403C30.7441 43.13 30.189 43.6879 29.5917 43.6826C26.9644 43.6667 24.3425 43.6561 21.7154 43.6879C20.9859 43.6933 20.4731 43.1406 20.4785 42.418C20.4864 40.9436 20.4853 39.4692 20.4843 37.9948C20.4841 37.5032 20.4837 37.0117 20.4837 36.5202C20.4837 35.9771 20.4846 35.4335 20.4854 34.8898V34.8887C20.4876 33.5285 20.4897 32.167 20.4785 30.8083C20.4678 29.4959 19.9762 28.3747 19.0882 27.4183C18.2847 26.547 17.2962 26.0156 16.1438 25.835C14.7906 25.6278 13.5536 25.9519 12.4329 26.7596C11.7669 27.2377 11.2594 27.8541 10.8789 28.5661C10.5194 29.2356 10.2815 29.9582 10.2763 30.7286C10.2736 32.6627 10.2736 34.597 10.2736 36.5317C10.2736 38.4664 10.2736 40.4017 10.2709 42.3383C10.2709 43.0609 9.97494 43.486 9.42517 43.6507C9.34587 43.6773 9.25069 43.6773 9.16616 43.6773H1.13126C0.512781 43.6773 0.0211731 43.1885 0.0211731 42.5668C0.0211731 41.5082 0.0196682 40.45 0.018163 39.392C0.0140328 36.483 0.00989331 33.5753 0.037033 30.6649C0.0412733 29.9862 0.168344 29.3074 0.294892 28.6315C0.325868 28.4661 0.356808 28.3008 0.385912 28.1357C0.634363 26.733 1.1524 25.4152 1.80788 24.1613C2.31006 23.1995 2.88096 22.2751 3.60515 21.4568L3.7341 21.3112C4.20941 20.7741 4.68816 20.2331 5.20682 19.7459C6.06323 18.9436 7.00416 18.2315 8.05075 17.7055C8.89651 17.2805 9.75815 16.8713 10.6515 16.5472C11.6189 16.1965 12.6233 15.9574 13.6541 15.8936C13.8413 15.883 14.0285 15.8707 14.2157 15.8586C14.8688 15.8159 15.5211 15.7732 16.1703 15.798C17.3543 15.8458 18.5332 16.0159 19.6644 16.3984C20.526 16.6907 21.3929 17.0042 22.2175 17.392C23.2378 17.8703 24.1893 18.4866 25.035 19.2411L25.0928 19.2923C25.7031 19.8334 26.3209 20.3813 26.864 20.9839C27.6569 21.8606 28.3283 22.8276 28.8886 23.8796C29.3591 24.767 29.7397 25.6809 30.041 26.632C30.3265 27.5352 30.5221 28.4598 30.6172 29.4056C30.7724 30.8889 30.7502 32.3742 30.7297 33.7477C30.7174 34.5735 30.7057 35.359 30.7334 36.0792Z" fill="white"/>
<path fill-rule="evenodd" clip-rule="evenodd" d="M217.901 3.96347C218.2 4.053 218.505 4.144 218.816 4.2313C218.833 3.99578 218.84 3.75804 218.847 3.52055C218.863 2.9558 218.879 2.39326 219.029 1.87339C219.257 1.07781 218.859 0.950056 218.319 0.779643C216.075 0.0553282 213.788 -0.243074 211.458 0.225746C208.462 0.836371 206.359 2.56935 205.251 5.41014C204.442 7.48394 204.385 9.61447 204.797 11.802C205.521 15.7079 208.533 18.4777 212.439 18.7761C214.725 18.9605 216.941 18.5913 219.086 17.7107C219.597 17.5119 219.711 17.2702 219.711 16.7873C219.697 14.4738 219.697 12.1457 219.697 9.83198V9.82754C219.697 9.68327 219.684 9.54566 219.671 9.41002C219.665 9.34541 219.659 9.28104 219.654 9.21667H214.044V10.6656V12.1428H216.316C216.316 12.4239 216.319 12.6979 216.321 12.9672V12.9702V12.9732V12.9759V12.9788C216.327 13.6435 216.332 14.2782 216.302 14.9125C216.302 15.083 216.047 15.3811 215.876 15.3954C215.01 15.4808 214.143 15.5375 213.277 15.5518C211.302 15.5801 209.442 14.1739 208.746 12.2989C208.177 10.7933 208.05 9.25934 208.348 7.69702C208.618 6.34753 209.172 5.15439 210.294 4.27372C211.956 2.96714 213.845 3.03817 215.762 3.40736C216.476 3.53806 217.175 3.74694 217.901 3.96347ZM177.541 18.5223C176.669 18.5248 175.857 18.5272 175.054 18.5063C174.884 18.5063 174.642 18.3215 174.543 18.1511C173.492 16.2337 172.455 14.3019 171.446 12.3702C171.247 11.9867 171.02 11.8163 170.58 11.8303C169.966 11.8515 169.352 11.8491 168.702 11.8464C168.48 11.8454 168.255 11.8446 168.023 11.8446V18.4776H164.671V0.410457C164.744 0.405524 164.815 0.399119 164.886 0.39246C165.022 0.380129 165.156 0.367793 165.296 0.367793C165.925 0.367793 166.554 0.360888 167.183 0.353982C168.756 0.336473 170.328 0.319208 171.901 0.410457C172.98 0.467179 174.088 0.822312 175.097 1.24847C176.347 1.77401 177.014 2.92447 177.199 4.20294C177.341 5.19705 177.242 6.23408 177.114 7.2425C176.915 8.70544 176.02 9.77083 174.827 10.5805C174.727 10.6515 174.642 10.7225 174.557 10.8076C174.525 10.8315 174.502 10.8641 174.479 10.8981C174.46 10.9252 174.44 10.9531 174.415 10.978L175.411 12.8304C176.409 14.6832 177.42 16.5619 178.463 18.5203C178.147 18.5203 177.84 18.5213 177.541 18.5223ZM168.037 8.60605H168.662C168.922 8.60605 169.184 8.61468 169.445 8.62306C170.012 8.64156 170.58 8.65981 171.134 8.59199C172.554 8.42133 173.477 7.99542 173.818 6.43286C174.074 5.25403 173.605 3.64904 172.157 3.42166C171.207 3.27171 170.244 3.22042 169.272 3.16838C168.862 3.14643 168.45 3.12448 168.037 3.09489V8.60605ZM198.86 0.424512V11.4752C198.83 11.4851 198.8 11.5018 198.776 11.5159L198.758 11.5255L198.746 11.5319C198.625 11.3544 198.501 11.1768 198.377 10.9992C198.252 10.8217 198.128 10.6441 198.007 10.4668C197.215 9.25712 196.425 8.04721 195.635 6.83829L195.633 6.83435L195.63 6.82991L195.627 6.82498C194.324 4.83034 193.022 2.83791 191.715 0.850672C191.602 0.665955 191.374 0.410461 191.19 0.396157C190.391 0.353492 189.601 0.358917 188.806 0.364096C188.541 0.366069 188.275 0.367793 188.008 0.367793V18.4636H191.36V6.36183C191.45 6.49303 191.512 6.57688 191.559 6.64076C191.593 6.68663 191.62 6.72386 191.644 6.75962C192.348 7.8112 193.052 8.86425 193.756 9.91756L193.779 9.95159L193.798 9.98069L193.815 10.0063L193.82 10.013L193.833 10.033L193.839 10.0419C195.637 12.7312 197.436 15.4233 199.243 18.1085C199.357 18.2789 199.556 18.492 199.726 18.506C200.304 18.5366 200.889 18.5307 201.477 18.525C201.712 18.5225 201.948 18.5203 202.183 18.5203V0.424512H198.86ZM99.2764 0.410457C100.952 6.47552 102.614 12.4696 104.29 18.492C105.441 18.492 106.506 18.492 107.543 18.4776C108.249 16.2899 108.951 14.1019 109.662 11.8841L109.665 11.8764C110.255 10.0364 110.852 8.17546 111.463 6.2765C112.742 10.3247 113.949 14.1599 115.142 17.9948C115.27 18.3783 115.426 18.5203 115.824 18.5063L115.988 18.4976C116.504 18.4707 117.028 18.4434 117.528 18.5203C118.31 18.634 118.523 18.2078 118.693 17.5829C119.121 15.9639 119.573 14.3601 120.024 12.7549C120.187 12.1776 120.35 11.5992 120.511 11.0207C121.42 7.76804 122.329 4.51541 123.224 1.24847C123.278 1.07657 123.304 0.893335 123.33 0.705906C123.345 0.599121 123.36 0.49012 123.38 0.382102H120.199C119.048 4.55783 117.912 8.69138 116.776 12.8387C116.57 12.6054 116.496 12.3852 116.428 12.1783L116.42 12.1571C116.191 11.4587 115.962 10.76 115.732 10.0616C114.737 7.0388 113.742 4.0123 112.784 0.978664C112.6 0.396153 112.216 0.438819 111.875 0.524149C111.676 0.576432 111.447 0.534754 111.218 0.493075C110.762 0.410212 110.303 0.326361 110.057 0.978664C109.89 1.43762 109.746 1.91211 109.603 2.38488C109.551 2.55579 109.499 2.72644 109.446 2.89611C109.262 3.50033 109.08 4.10479 108.897 4.709L108.895 4.71443C108.529 5.92606 108.163 7.13868 107.784 8.35031C107.498 9.27956 107.196 10.2088 106.88 11.177C106.68 11.7923 106.474 12.4234 106.265 13.0802C105.624 10.7447 104.991 8.45438 104.366 6.19364L104.365 6.18969L104.362 6.17785C103.825 4.23673 103.295 2.31755 102.77 0.410457H99.2764ZM79.5473 11.6315V0.410457H82.8852V18.506C82.6741 18.506 82.4623 18.507 82.2499 18.508H82.2472C81.6028 18.5105 80.9505 18.5132 80.2999 18.492C80.1783 18.492 80.0439 18.2993 79.9455 18.1583L79.9307 18.1368L72.3032 6.71696C72.2737 6.66788 72.2307 6.61856 72.1505 6.52707C72.1147 6.48637 72.0717 6.4373 72.0192 6.37614V18.4776H68.6528V0.367793C68.9125 0.367793 69.1712 0.366811 69.4296 0.366071C70.2027 0.363358 70.9721 0.360646 71.7493 0.382102C71.9339 0.382102 72.147 0.609231 72.2606 0.779643C73.7039 2.94889 75.1364 5.12356 76.568 7.297C77.4612 8.6529 78.354 10.0083 79.2488 11.3615C79.273 11.4015 79.3058 11.4281 79.363 11.474C79.4074 11.5095 79.4664 11.5568 79.5473 11.6315ZM86.0952 25.267V36.6585C85.8538 36.332 85.7401 36.1756 85.6264 35.9909C84.6337 34.5051 83.6463 33.019 82.6596 31.5341C81.3451 29.5559 80.0316 27.5796 78.7092 25.6081C78.6097 25.4517 78.4251 25.2387 78.283 25.2387C77.5163 25.2174 76.7416 25.2202 75.9648 25.2226C75.7056 25.2236 75.4461 25.2246 75.1866 25.2246V43.3345H78.5529V31.247C78.766 31.5878 78.8796 31.7582 78.9934 31.9286C79.8121 33.1501 80.6294 34.3714 81.4469 35.5926C83.082 38.0359 84.7173 40.4791 86.365 42.9226C86.493 43.1071 86.7201 43.3345 86.9189 43.3485C87.5066 43.3791 88.0943 43.3732 88.6871 43.3675H88.6899H88.6928C88.9293 43.3653 89.1663 43.3628 89.4048 43.3628V25.267H86.0952ZM86.1379 0.396157H97.5151V3.57777H89.5182V7.44128H97.5151V10.6939H89.5042V15.2674H97.7992V18.4633H86.1519C86.1379 12.4836 86.1379 6.46122 86.1379 0.396157ZM188.548 40.1385H180.267V35.5364H188.264V32.3121H180.267V28.4486H188.278V25.2813H176.886V43.3485H188.548V40.1385ZM155.538 25.267H158.89L158.895 25.3425C158.908 25.5243 158.918 25.687 158.918 25.8493C158.918 26.9573 158.926 28.0652 158.934 29.1732C158.952 31.7582 158.97 34.3433 158.89 36.9283C158.819 39.2009 157.953 41.218 155.978 42.5532C154.884 43.3059 153.62 43.6469 152.285 43.6753C150.88 43.7037 149.486 43.7318 148.123 43.1922C146.433 42.5248 145.283 41.3317 144.615 39.684C144.061 38.3345 143.876 36.9 143.876 35.437C143.886 33.1975 143.883 30.9641 143.88 28.7123C143.878 27.5791 143.876 26.4412 143.876 25.2954H147.257V26.0056C147.257 26.8649 147.252 27.7251 147.246 28.5857C147.232 30.8265 147.218 33.0722 147.3 35.309C147.342 36.4598 147.669 37.6529 148.095 38.7323C148.592 39.9965 150.425 40.8202 151.788 40.5644C151.894 40.5442 152 40.5252 152.106 40.5063C152.813 40.38 153.521 40.2537 154.089 39.6981C155.154 38.6613 155.481 37.3261 155.509 35.9483C155.561 33.5524 155.553 31.1639 155.544 28.7719V28.7653C155.541 27.8698 155.538 26.9739 155.538 26.0767V25.267ZM160.765 0.396157H157.526C157.526 1.14267 157.531 1.88449 157.536 2.62188V2.62459C157.545 4.089 157.555 5.53714 157.526 6.97246C157.484 8.69113 157.441 10.4098 157.228 12.1001C157.044 13.5204 156.504 14.8699 154.955 15.3385C154.259 15.5515 153.478 15.5658 152.74 15.5515C151.504 15.5375 150.552 14.9693 149.97 13.8612C149.359 12.6967 149.146 11.4325 149.132 10.1541C149.101 8.0043 149.107 5.86169 149.113 3.71587V3.70552C149.116 2.84926 149.118 1.99251 149.118 1.13478V0.424512H145.737C145.737 1.29655 145.736 2.16588 145.735 3.03299C145.733 5.62617 145.73 8.19962 145.751 10.7649C145.751 11.6313 145.851 12.4977 146.036 13.3357C146.419 15.0119 147.143 16.5032 148.607 17.526C150.581 18.9038 152.782 18.9748 155.055 18.6621C158.776 18.1509 160.623 15.2817 160.737 11.9581C160.816 9.44208 160.798 6.91894 160.78 4.39876C160.773 3.31956 160.765 2.24061 160.765 1.16314V0.396157ZM103.063 29.1296C102.237 28.8235 101.411 28.5179 100.569 28.2642C99.2621 27.8807 97.9553 27.8947 96.7621 28.7187C95.7254 29.443 95.7397 30.7498 96.7621 31.4884C97.6956 32.1605 98.76 32.4618 99.8308 32.7649C99.9822 32.8078 100.134 32.8507 100.285 32.8946C101.861 33.3492 103.381 33.8888 104.56 35.1246C106.037 36.6585 106.122 39.1442 105.199 40.9198C104.304 42.6242 102.728 43.2491 100.967 43.5049C98.4667 43.86 95.9811 43.718 93.5665 42.88C92.9699 42.6669 92.6574 42.4254 92.7425 41.7435C92.8466 41.0047 92.9277 40.2579 93.014 39.4645C93.0456 39.176 93.0777 38.8791 93.1119 38.5762C93.1926 38.6236 93.2671 38.6648 93.3369 38.7035C93.4755 38.7799 93.5951 38.8463 93.7085 38.9313C95.768 40.4083 98.0406 40.8772 100.512 40.2949C101.279 40.1102 101.947 39.7267 102.103 38.9027C102.273 37.9654 101.776 37.3121 101.023 36.8006C100.031 36.1197 98.9124 35.7586 97.7945 35.3978C97.2803 35.2318 96.7663 35.0659 96.2652 34.8688C94.6175 34.2155 93.1119 33.3918 92.6005 31.5168C92.0466 29.5 92.8562 27.4262 94.3902 26.2614C96.2936 24.8268 98.5094 24.7274 100.739 25.0826C101.317 25.1713 101.883 25.3373 102.451 25.5043C102.973 25.6574 103.498 25.8111 104.035 25.9063C104.886 26.0599 104.832 26.6113 104.776 27.1832L104.773 27.2131C104.734 27.7894 104.652 28.3658 104.573 28.9276C104.538 29.1688 104.505 29.4072 104.475 29.642C104.002 29.4775 103.532 29.3032 103.063 29.1296ZM130.141 3.59207H135.255V18.4633H138.621V3.59207H143.522V0.410212H130.141V3.59207ZM120.383 28.4629H115.483V43.3342H112.088V28.4913H107.003V25.267H120.369C120.383 26.3179 120.383 27.3413 120.383 28.4629ZM133.408 43.3485H136.775V28.4203H141.675V25.267H128.309V28.4913H133.408V43.3485ZM174.514 25.2813V28.4346H169.586V43.3485H166.219V28.5056H161.134V25.2954C165.565 25.2813 169.998 25.2813 174.514 25.2813ZM183.988 0.396157H180.721V18.4776H183.988V0.396157ZM68.6671 25.253H71.9482V43.3202H68.6671V25.253ZM126.065 25.253H122.784V43.3202H126.065V25.253Z" fill="white"/>
</g>
<defs>
<clipPath id="clip0_2016_608">
<rect width="220" height="43.6879" fill="white"/>
</clipPath>
</defs>
</svg>
