<svg width="220" height="69" viewBox="0 0 220 69" fill="none" xmlns="http://www.w3.org/2000/svg">
<g clip-path="url(#clip0_6057_13125)">
<path d="M219.416 14.7877H215.134V49.5118H219.416V14.7877Z" fill="white"/>
<path d="M137.968 25.3871H133.855V49.4694H137.968V25.3871Z" fill="white"/>
<path d="M162.22 32.7221C162.22 27.5919 159.21 24.9632 152.002 24.9632C144.328 24.9632 141.063 28.0582 141.063 37.3859C141.063 46.5015 144.243 49.9358 152.426 49.9358C155.14 49.9358 159.422 49.5542 161.669 48.6214L161.245 45.8231C158.786 46.1623 155.521 46.4167 152.977 46.4167C148.102 46.4167 145.897 45.1447 145.473 39.4634H156.539C160.482 39.4634 162.263 36.9619 162.22 32.7221ZM145.388 36.2411C145.515 30.2206 147.211 28.4822 152.172 28.4822C156.412 28.4822 157.98 29.7118 158.023 32.7221C158.023 34.4604 157.599 36.2411 155.436 36.2411H145.388Z" fill="white"/>
<path d="M172.523 18.0946H168.368V25.3872L164.086 25.7687V28.6518H168.368V43.4488C168.368 47.6039 170.488 49.8934 174.474 49.8934C175.661 49.8934 178.289 49.6814 179.858 49.2574L179.349 46.0775H175.745C173.414 46.0775 172.523 45.1872 172.523 42.8976V28.6518H180.112V25.3872H172.523V18.0946Z" fill="white"/>
<path d="M118.169 46.1623H116.812L106.891 14.7877H102.439L113.633 48.3246C113.845 49.0454 114.481 49.5118 115.244 49.5118H119.738C120.501 49.5118 121.137 49.0878 121.349 48.3246L132.542 14.7877H128.09L118.169 46.1623Z" fill="white"/>
<path d="M208.392 49.4694H212.844L201.651 15.9324C201.439 15.2116 200.803 14.7452 200.04 14.7452H195.545C194.782 14.7452 194.146 15.1692 193.934 15.9324L182.741 49.4694H187.193L197.114 18.0947H198.471L208.392 49.4694Z" fill="white"/>
<path d="M197.792 43.4488C199.829 43.4488 201.481 41.7972 201.481 39.7602C201.481 37.7229 199.829 36.0715 197.792 36.0715C195.755 36.0715 194.104 37.7229 194.104 39.7602C194.104 41.7972 195.755 43.4488 197.792 43.4488Z" fill="white"/>
<path d="M89.7689 37.1235C85.4509 15.4287 65.2884 0.38512 44.0813 0.141357C26.0775 0.315474 8.31788 9.33465 1.87563 26.9552C-1.1888 35.3126 -0.736101 44.4362 5.00971 51.5401C9.85011 57.5298 17.4067 61.3254 25.1723 60.7334C29.3858 60.4202 33.2511 58.8531 37.2907 57.8084C42.6882 56.4154 48.3644 56.5895 53.6228 58.6093C56.8264 59.828 58.7765 61.9175 61.2142 64.146C63.6516 66.3748 66.8206 67.8026 70.094 68.29C76.2229 69.1954 82.108 66.1658 85.6947 61.3254C90.7441 54.535 91.3709 45.1676 89.7689 37.1235ZM14.586 12.7125C22.4212 6.44433 32.7986 3.93706 42.6882 3.86741C58.4284 4.04153 73.228 12.608 81.6205 25.8757C85.2768 31.6562 84.1276 38.5163 79.4615 43.9487C81.3418 40.1879 82.0732 35.2777 78.173 30.9597C74.3423 26.6765 67.9002 27.5123 65.3581 28.2785C64.9403 27.8258 64.3481 27.5123 63.6865 27.4774C62.3285 27.4079 61.1793 28.4526 61.1096 29.7759C61.1096 29.8453 61.1096 29.9151 61.1096 29.9848C58.8462 31.0992 56.7218 32.4571 54.8415 33.7455C54.7023 33.4322 54.5628 33.1187 54.4236 32.8054C52.2995 28.1042 50.1056 23.229 46.9714 20.2343C39.5541 13.0607 30.7439 13.9313 24.8937 17.7618C21.098 20.2343 16.8147 25.2835 17.546 32.3527C18.2773 39.4217 25.0329 46.0382 32.137 45.5506C29.9082 46.3168 27.6795 46.8739 25.5553 47.1874C22.6302 47.6053 19.7747 47.5704 17.0933 47.048C17.0585 45.4114 15.77 44.0881 14.1334 43.9835C13.0887 43.914 12.1484 44.3667 11.5216 45.1327C5.74099 42.5559 3.33821 40.0833 2.95514 34.1634C2.57209 28.2436 8.24826 17.7966 14.586 12.7125ZM65.9849 29.6713C67.7956 29.2534 69.6064 29.1837 71.3476 29.7061C74.3075 30.5767 76.5362 32.3527 77.8246 34.825C79.0436 37.1583 79.2872 40.0139 78.5212 42.3121C77.7552 44.506 76.2576 46.2471 74.2031 47.222C71.6611 48.441 68.3877 48.3713 64.766 47.0131C60.622 45.4809 57.9408 40.4663 55.4683 35.1385C57.3835 33.8152 59.4382 32.4222 61.5972 31.3427C62.015 31.9 62.6767 32.283 63.4081 32.3179C64.766 32.3876 65.9152 31.3427 65.9849 30.0196C65.9849 29.8802 65.9849 29.7759 65.9849 29.6713ZM53.5879 34.5815C53.553 34.6161 53.5182 34.6161 53.4833 34.6509C52.2297 35.5215 51.0459 36.3572 49.9661 37.0189C49.6529 37.2278 49.3047 37.4367 48.9215 37.6805C42.8972 41.5112 30.8831 49.1375 23.3615 37.9243C18.0335 29.9848 22.0033 22.5326 26.3562 19.2244C28.7241 17.4484 31.9975 16.1599 35.6193 16.3689C38.9273 16.543 42.5142 17.9359 45.9616 21.279C48.8866 24.0997 51.011 28.8356 53.0655 33.3974C53.2395 33.8152 53.4138 34.1982 53.5879 34.5815ZM73.1933 64.773C70.1289 64.7033 66.9947 63.589 64.557 61.7432C62.6418 60.3156 61.2142 58.3306 59.2641 56.9378C52.8914 52.4804 42.7928 53.7688 35.6193 55.7886C28.2714 57.8779 22.665 58.5047 15.4566 54.8135C10.4421 52.2714 6.29815 47.9883 4.2436 42.7997C4.90525 43.5308 6.68122 45.272 10.8948 47.2569C10.9993 48.824 12.2529 50.1124 13.8548 50.1821C14.795 50.217 15.6656 49.8686 16.2576 49.2418C16.2924 49.2418 16.362 49.2767 16.3968 49.2767C18.0335 49.6597 24.1275 50.7741 30.2215 48.6499C39.7284 45.3068 50.4886 38.4816 50.8367 38.2727C51.9165 37.6111 53.0655 36.81 54.2844 35.9394C56.0602 39.7701 58.1149 43.3219 60.5525 45.8987C65.4625 51.0527 71.5217 50.8089 75.8397 49.4508C80.8542 47.9185 85.4509 41.5807 86.7742 36.4618C89.9084 48.8937 87.6448 65.0515 73.1933 64.773Z" fill="white"/>
</g>
<defs>
<clipPath id="clip0_6057_13125">
<rect width="220" height="68.5439" fill="white"/>
</clipPath>
</defs>
</svg>
